<svg width="17" height="16" viewBox="0 0 17 16" fill="none" xmlns="http://www.w3.org/2000/svg">
<path d="M12.7901 9.54675C12.6174 9.71408 12.5381 9.95608 12.5774 10.1934L13.1701 13.4734C13.2201 13.7514 13.1027 14.0327 12.8701 14.1934C12.6421 14.3601 12.3387 14.3801 12.0901 14.2467L9.13741 12.7067C9.03474 12.6521 8.92074 12.6227 8.80407 12.6194H8.62341C8.56074 12.6287 8.49941 12.6487 8.44341 12.6794L5.49007 14.2267C5.34407 14.3001 5.17874 14.3261 5.01674 14.3001C4.62207 14.2254 4.35874 13.8494 4.42341 13.4527L5.01674 10.1727C5.05607 9.93341 4.97674 9.69008 4.80407 9.52008L2.39674 7.18675C2.19541 6.99141 2.12541 6.69808 2.21741 6.43341C2.30674 6.16941 2.53474 5.97675 2.81007 5.93341L6.12341 5.45275C6.37541 5.42675 6.59674 5.27341 6.71007 5.04675L8.17007 2.05341C8.20474 1.98675 8.24941 1.92541 8.30341 1.87341L8.36341 1.82675C8.39474 1.79208 8.43074 1.76341 8.47074 1.74008L8.54341 1.71341L8.65674 1.66675H8.93741C9.18807 1.69275 9.40874 1.84275 9.52407 2.06675L11.0034 5.04675C11.1101 5.26475 11.3174 5.41608 11.5567 5.45275L14.8701 5.93341C15.1501 5.97341 15.3841 6.16675 15.4767 6.43341C15.5641 6.70075 15.4887 6.99408 15.2834 7.18675L12.7901 9.54675Z" fill="#FDC040"/>
</svg>
